<?xml version="1.0" encoding="UTF-8" standalone="no"?>
<svg width="24px" height="24px" viewBox="0 0 24 24" version="1.1" xmlns="http://www.w3.org/2000/svg" xmlns:xlink="http://www.w3.org/1999/xlink">
    <!-- Generator: Sketch 39.1 (31720) - http://www.bohemiancoding.com/sketch -->
    <title>bus</title>
    <desc>Created with Sketch.</desc>
    <defs></defs>
    <g id="icons" stroke="none" stroke-width="1" fill="none" fill-rule="evenodd" stroke-linecap="round" stroke-linejoin="round">
        <g id="bus" stroke="#3A5278">
            <path d="M19.5,21.5 C19.5,22.052 19.052,22.5 18.5,22.5 L5.5,22.5 C4.947,22.5 4.5,22.052 4.5,21.5 L4.5,4 C4.5,2.066 6.066,0.5 8,0.5 L16,0.5 C17.933,0.5 19.5,2.066 19.5,4 L19.5,21.5 L19.5,21.5 Z" id="Stroke-1433"></path>
            <polygon id="Stroke-1434" points="7.5 23.5 5.5 23.5 5.5 22.5 7.5 22.5"></polygon>
            <polygon id="Stroke-1435" points="18.5 23.5 16.5 23.5 16.5 22.5 18.5 22.5"></polygon>
            <polygon id="Stroke-1436" points="19.5 15.5 4.5 15.5 4.5 6.5 19.5 6.5"></polygon>
            <polygon id="Stroke-1437" points="14.5 4.5 9.5 4.5 9.5 2.5 14.5 2.5"></polygon>
            <path d="M6.5,19.5 L9.5,19.5" id="Stroke-1438"></path>
            <path d="M14.5,19.5 L17.5,19.5" id="Stroke-1439"></path>
            <polygon id="Stroke-1440" points="0.5 14.5 2.5 14.5 2.5 7.5 0.5 7.5"></polygon>
            <polygon id="Stroke-1441" points="21.5 14.5 23.5 14.5 23.5 7.5 21.5 7.5"></polygon>
            <path d="M2.5,7.5 L4.5,7.5" id="Stroke-1442"></path>
            <path d="M19.5,7.5 L21.5,7.5" id="Stroke-1443"></path>
        </g>
    </g>
</svg>