<?xml version="1.0" encoding="UTF-8" standalone="no"?>
<svg width="31px" height="50px" viewBox="0 0 31 50" version="1.1" xmlns="http://www.w3.org/2000/svg" xmlns:xlink="http://www.w3.org/1999/xlink">
    <!-- Generator: Sketch 39.1 (31720) - http://www.bohemiancoding.com/sketch -->
    <title>celebrate</title>
    <desc>Created with Sketch.</desc>
    <defs></defs>
    <g id="icons" stroke="none" stroke-width="1" fill="none" fill-rule="evenodd">
        <g id="celebrate" fill="#3A5278">
            <path d="M9.39393939,33.7735849 C13.5272727,29.245283 12.3060606,14.7169811 12.2121212,14.1509434 L12.2121212,13.6792453 L0.46969697,13.6792453 L0.46969697,14.1509434 C0.375757576,14.7169811 -0.845454545,29.245283 3.28787879,33.7735849 C4.03939394,34.6226415 4.88484848,35 5.82424242,35.0943396 L5.82424242,48.8679245 L2.25454545,48.8679245 L2.25454545,49.8113208 L10.3333333,49.8113208 L10.3333333,48.8679245 L6.76363636,48.8679245 L6.76363636,35.0943396 C7.7969697,35 8.64242424,34.5283019 9.39393939,33.7735849 L9.39393939,33.7735849 Z M1.40909091,14.6226415 L11.2727273,14.6226415 C11.3666667,15.5660377 11.4606061,17.9245283 11.4606061,20.754717 L1.22121212,20.754717 C1.12727273,17.9245283 1.31515152,15.5660377 1.40909091,14.6226415 L1.40909091,14.6226415 Z M6.38787879,34.245283 C5.44848485,34.245283 4.6969697,33.8679245 4.03939394,33.1132075 C2.06666667,30.9433962 1.40909091,26.0377358 1.31515152,21.6981132 L11.5545455,21.6981132 C11.4606061,25.9433962 10.8030303,30.8490566 8.83030303,33.1132075 C7.98484848,33.8679245 7.23333333,34.245283 6.38787879,34.245283 L6.38787879,34.245283 Z" id="Shape"></path>
            <path d="M25.1757576,35.0943396 C26.1151515,35 27.0545455,34.5283019 27.7121212,33.7735849 C31.8454545,29.245283 30.6242424,14.7169811 30.530303,14.1509434 L30.530303,13.6792453 L18.7878788,13.6792453 L18.7878788,14.1509434 C18.6939394,14.7169811 17.4727273,29.245283 21.6060606,33.7735849 C22.3575758,34.6226415 23.2030303,35 24.1424242,35.0943396 L24.1424242,48.8679245 L20.6666667,48.8679245 L20.6666667,49.8113208 L28.6515152,49.8113208 L28.6515152,48.8679245 L25.0818182,48.8679245 L25.1757576,35.0943396 L25.1757576,35.0943396 L25.1757576,35.0943396 Z M19.7272727,14.6226415 L29.6848485,14.6226415 C29.7787879,15.5660377 29.8727273,17.9245283 29.8727273,20.754717 L19.5393939,20.754717 C19.4454545,17.9245283 19.6333333,15.5660377 19.7272727,14.6226415 L19.7272727,14.6226415 Z M22.2636364,33.1132075 C20.2909091,30.9433962 19.6333333,26.0377358 19.5393939,21.6981132 L29.7787879,21.6981132 C29.6848485,25.9433962 29.0272727,30.8490566 27.0545455,33.1132075 C26.3969697,33.8679245 25.6454545,34.245283 24.7060606,34.245283 C23.7666667,34.245283 23.0151515,33.8679245 22.2636364,33.1132075 L22.2636364,33.1132075 Z" id="Shape"></path>
            <path d="M2.16060606,5.18867925 C2.72424242,6.79245283 4.22727273,7.35849057 5.54242424,7.9245283 C6.29393939,8.20754717 6.95151515,8.49056604 7.32727273,8.86792453 L7.98484848,9.43396226 L8.07878788,8.58490566 C8.17272727,8.01886792 8.54848485,7.35849057 8.92424242,6.69811321 C9.67575758,5.47169811 10.4272727,4.05660377 9.95757576,2.45283019 C9.95757576,2.35849057 9.86363636,2.26415094 9.86363636,2.26415094 L9.86363636,2.26415094 C9.39393939,1.13207547 8.07878788,0.566037736 6.95151515,1.03773585 C6.29393939,1.22641509 5.82424242,1.69811321 5.54242424,2.35849057 C4.97878788,2.0754717 4.22727273,1.98113208 3.66363636,2.16981132 C2.53636364,2.54716981 1.87878788,3.77358491 2.16060606,5 L2.16060606,5.18867925 L2.16060606,5.18867925 Z M3.94545455,3.01886792 C4.13333333,2.9245283 4.22727273,2.9245283 4.41515152,2.9245283 C4.79090909,2.9245283 5.16666667,3.11320755 5.44848485,3.39622642 L6.2,4.24528302 L6.29393939,3.11320755 C6.29393939,2.54716981 6.66969697,2.0754717 7.23333333,1.88679245 C7.98484848,1.60377358 8.73636364,1.98113208 9.01818182,2.64150943 C9.01818182,2.64150943 9.01818182,2.73584906 9.11212121,2.73584906 C9.48787879,3.86792453 8.83030303,5.09433962 8.17272727,6.22641509 C7.89090909,6.69811321 7.60909091,7.26415094 7.42121212,7.73584906 C6.95151515,7.45283019 6.48181818,7.26415094 5.91818182,6.98113208 C4.6969697,6.50943396 3.47575758,5.94339623 3.1,4.81132075 L3.1,4.71698113 C2.81818182,3.96226415 3.28787879,3.30188679 3.94545455,3.01886792 L3.94545455,3.01886792 Z" id="Shape"></path>
            <path d="M19.7272727,9.62264151 C19.7272727,9.52830189 19.8212121,9.52830189 19.8212121,9.43396226 L19.8212121,9.43396226 C20.1969697,8.67924528 19.9151515,7.73584906 19.2575758,7.16981132 C18.8818182,6.98113208 18.5060606,6.88679245 18.0363636,6.88679245 C17.9424242,6.50943396 17.6606061,6.13207547 17.2848485,5.94339623 C16.5333333,5.47169811 15.5939394,5.66037736 15.030303,6.32075472 L14.9363636,6.41509434 C14.2787879,7.35849057 14.6545455,8.49056604 14.9363636,9.33962264 C15.030303,9.81132075 15.2181818,10.2830189 15.2181818,10.5660377 L15.030303,11.6981132 L15.7818182,11.2264151 C16.0636364,11.0377358 16.5333333,11.0377358 17.0030303,10.9433962 C17.9424242,10.754717 19.069697,10.6603774 19.7272727,9.62264151 L19.7272727,9.62264151 Z M18.8818182,9.1509434 C18.5060606,9.81132075 17.6606061,9.90566038 16.9090909,10 C16.6272727,10 16.2515152,10.0943396 15.969697,10.1886792 C15.8757576,9.90566038 15.8757576,9.62264151 15.7818182,9.24528302 C15.5,8.39622642 15.3121212,7.64150943 15.7818182,6.98113208 C15.969697,6.79245283 16.1575758,6.69811321 16.3454545,6.69811321 C16.5333333,6.69811321 16.6272727,6.69811321 16.7212121,6.79245283 C17.0030303,6.98113208 17.0969697,7.26415094 17.0969697,7.54716981 L16.9090909,8.77358491 L17.8484848,8.11320755 C18.130303,7.9245283 18.4121212,7.9245283 18.6939394,8.11320755 C19.069697,8.30188679 19.1636364,8.67924528 18.8818182,9.1509434 L18.8818182,9.1509434 L18.8818182,9.1509434 Z" id="Shape"></path>
            <path d="M24.8,5.37735849 C25.1757576,5.66037736 25.6454545,5.8490566 25.8333333,6.13207547 L26.3969697,6.88679245 L26.6787879,6.03773585 C26.7727273,5.75471698 27.0545455,5.37735849 27.430303,5 C27.9939394,4.33962264 28.7454545,3.39622642 28.6515152,2.26415094 L28.6515152,2.0754717 L28.6515152,2.0754717 C28.4636364,1.22641509 27.6181818,0.660377358 26.7727273,0.754716981 C26.3030303,0.849056604 25.9272727,1.03773585 25.7393939,1.32075472 C25.3636364,1.13207547 24.9878788,1.03773585 24.5181818,1.03773585 C23.6727273,1.13207547 23.0151515,1.88679245 23.0151515,2.83018868 L23.0151515,3.01886792 C23.0151515,4.33962264 23.9545455,4.90566038 24.8,5.37735849 L24.8,5.37735849 Z M24.4242424,2.16981132 L24.4242424,2.16981132 C24.8,2.16981132 24.9878788,2.26415094 25.1757576,2.54716981 L25.7393939,3.49056604 L26.0212121,2.45283019 C26.1151515,2.16981132 26.3030303,1.88679245 26.6787879,1.88679245 C27.0545455,1.79245283 27.430303,2.0754717 27.5242424,2.45283019 L27.5242424,2.54716981 C27.6181818,3.30188679 27.1484848,3.86792453 26.5848485,4.52830189 C26.3969697,4.81132075 26.2090909,5 26.0212121,5.28301887 C25.8333333,5.09433962 25.5515152,4.90566038 25.269697,4.71698113 C24.5181818,4.24528302 23.8606061,3.86792453 23.7666667,3.01886792 C23.7666667,2.54716981 24.0484848,2.16981132 24.4242424,2.16981132 L24.4242424,2.16981132 Z" id="Shape"></path>
        </g>
    </g>
</svg>