<?xml version="1.0" encoding="UTF-8" standalone="no"?>
<svg width="9px" height="24px" viewBox="0 0 9 24" version="1.1" xmlns="http://www.w3.org/2000/svg" xmlns:xlink="http://www.w3.org/1999/xlink">
    <!-- Generator: Sketch 39.1 (31720) - http://www.bohemiancoding.com/sketch -->
    <title>champagne</title>
    <desc>Created with Sketch.</desc>
    <defs></defs>
    <g id="icons" stroke="none" stroke-width="1" fill="none" fill-rule="evenodd">
        <g id="champagne">
            <path d="M4.5,16.5 L4.5,23.5" id="Stroke-744" stroke="#3A5278" stroke-linejoin="round"></path>
            <path d="M2,23.5 L7,23.5" id="Stroke-745" stroke="#3A5278" stroke-linecap="round" stroke-linejoin="round"></path>
            <path d="M1,6.5 L8,6.5" id="Stroke-746" stroke="#3A5278" stroke-linejoin="round"></path>
            <path d="M2.5,11 C2.224,11 2,11.224 2,11.5 C2,11.776 2.224,12 2.5,12 C2.776,12 3,11.776 3,11.5 C3,11.224 2.776,11 2.5,11" id="Fill-747" fill="#000000"></path>
            <path d="M3.5,8 C3.224,8 3,8.224 3,8.5 C3,8.776 3.224,9 3.5,9 C3.776,9 4,8.776 4,8.5 C4,8.224 3.776,8 3.5,8" id="Fill-748" fill="#000000"></path>
            <path d="M3.5313,14.0107 C3.2553,14.0107 3.0313,14.2347 3.0313,14.5107 C3.0313,14.7867 3.2553,15.0107 3.5313,15.0107 C3.8073,15.0107 4.0313,14.7867 4.0313,14.5107 C4.0313,14.2347 3.8073,14.0107 3.5313,14.0107" id="Fill-749" fill="#000000"></path>
            <path d="M5.5,12 C5.224,12 5,12.224 5,12.5 C5,12.776 5.224,13 5.5,13 C5.776,13 6,12.776 6,12.5 C6,12.224 5.776,12 5.5,12" id="Fill-750" fill="#000000"></path>
            <path d="M6.5,9 C6.224,9 6,9.224 6,9.5 C6,9.776 6.224,10 6.5,10 C6.776,10 7,9.776 7,9.5 C7,9.224 6.776,9 6.5,9" id="Fill-751" fill="#000000"></path>
            <path d="M0.5,12.5 L1.5,0.5 L7.5,0.5 L8.5,12.5 C8.5,14.709 6.709,16.5 4.5,16.5 C2.291,16.5 0.5,14.709 0.5,12.5 L0.5,12.5 Z" id="Stroke-752" stroke="#3A5278" stroke-linecap="round" stroke-linejoin="round"></path>
        </g>
    </g>
</svg>