<?xml version="1.0" encoding="UTF-8" standalone="no"?>
<svg width="50px" height="50px" viewBox="0 0 50 50" version="1.1" xmlns="http://www.w3.org/2000/svg" xmlns:xlink="http://www.w3.org/1999/xlink">
    <!-- Generator: Sketch 39.1 (31720) - http://www.bohemiancoding.com/sketch -->
    <title>rings</title>
    <desc>Created with Sketch.</desc>
    <defs></defs>
    <g id="icons" stroke="none" stroke-width="1" fill="none" fill-rule="evenodd">
        <g id="rings">
            <polygon id="Shape" points="16.5492958 8.8028169 19.7183099 4.22535211 17.5352113 4.22535211"></polygon>
            <polygon id="Shape" points="15 1.33802817 12.6056338 1.33802817 13.5915493 2.81690141"></polygon>
            <polygon id="Shape" points="13.943662 3.52112676 16.6197183 3.52112676 15.3521127 1.97183099"></polygon>
            <polygon id="Shape" points="17.6760563 3.52112676 17.6760563 3.52112676 19.7887324 3.52112676 18.8028169 1.83098592 17.3943662 3.45070423"></polygon>
            <polygon id="Shape" points="18.3802817 1.33802817 15.7746479 1.33802817 16.971831 2.88732394"></polygon>
            <path d="M22.7464789,37.5352113 C23.3802817,39.9295775 24.8591549,42.0422535 27.0422535,43.5915493 C32.0422535,47.1126761 39.0140845,45.915493 42.5352113,40.915493 C46.056338,35.915493 44.8591549,28.943662 39.8591549,25.4225352 C37.0422535,23.4507042 33.5915493,22.9577465 30.4929577,23.8028169 L30.4929577,24.2957746 C30.4929577,30 27.3239437,34.9295775 22.7464789,37.5352113 L22.7464789,37.5352113 Z" id="Shape"></path>
            <path d="M26.4084507,25.915493 C25.6338028,26.5492958 24.9295775,27.2535211 24.2957746,28.1690141 C23.2394366,29.6478873 22.6056338,31.3380282 22.3943662,33.028169 C24.5070423,31.1971831 25.9859155,28.7323944 26.4084507,25.915493 L26.4084507,25.915493 Z" id="Shape"></path>
            <path d="M20.915493,25.7042254 C22.3239437,23.7323944 24.084507,22.1830986 26.056338,21.1267606 C24.6478873,16.5492958 20.4225352,13.2394366 15.4225352,13.2394366 C9.29577465,13.2394366 4.29577465,18.2394366 4.29577465,24.3661972 C4.29577465,30.4929577 9.29577465,35.4929577 15.4225352,35.4929577 C16.3380282,35.4929577 17.2535211,35.3521127 18.1690141,35.1408451 C18.028169,31.8309859 18.943662,28.5211268 20.915493,25.7042254 L20.915493,25.7042254 Z" id="Shape"></path>
            <polygon id="Shape" points="14.084507 4.22535211 15.0704225 8.8028169 15.8450704 8.8028169 16.7605634 4.22535211"></polygon>
            <polygon id="Shape" points="41.4084507 15.6338028 41.3380282 21.1971831 41.4084507 21.1971831 43.3098592 16.9014085"></polygon>
            <polygon id="Shape" points="43.6619718 14.2253521 41.7605634 15 43.5915493 16.2676056"></polygon>
            <polygon id="Shape" points="46.1971831 16.1971831 44.1549296 16.6901408 44.1549296 16.6901408 46.3380282 18.2394366"></polygon>
            <polygon id="Shape" points="43.8732394 17.3239437 41.971831 21.6197183 42.6760563 22.1126761 46.056338 18.8732394"></polygon>
            <polygon id="Shape" points="43.2394366 22.4647887 48.4507042 20.5633803 46.6197183 19.2957746"></polygon>
            <polygon id="Shape" points="44.3661972 14.084507 44.2957746 15.915493 46.3380282 15.4929577"></polygon>
            <polygon id="Shape" points="47.1830986 18.8028169 47.1830986 18.8028169 48.943662 20.0704225 49.084507 18.0985915 47.0422535 18.5915493"></polygon>
            <polygon id="Shape" points="12.1126761 1.83098592 11.056338 3.52112676 13.2394366 3.52112676"></polygon>
            <polygon id="Shape" points="14.2957746 8.8028169 13.3802817 4.22535211 11.056338 4.22535211 14.2253521 8.8028169"></polygon>
            <polygon id="Shape" points="49.084507 17.3943662 46.9014085 15.915493 47.0422535 17.8873239"></polygon>
            <path d="M49.9295775,17.1830986 L44.3661972,13.2394366 L40.7746479,14.7183099 L40.7042254,21.1971831 C37.3239437,19.2957746 33.4507042,18.8732394 29.8591549,19.7183099 C28.0985915,14.1549296 23.1690141,10 17.1830986,9.29577465 L20.8450704,3.94366197 L19.0140845,0.633802817 L12.1830986,0.633802817 L10.0704225,3.94366197 L13.7323944,9.29577465 C6.12676056,10.1408451 0.211267606,16.5492958 0.211267606,24.3661972 C0.211267606,32.7464789 7.04225352,39.5070423 15.3521127,39.5070423 C16.5492958,39.5070423 17.7464789,39.3661972 18.8732394,39.084507 C19.8591549,42.1126761 21.7605634,44.9295775 24.5774648,46.9014085 C31.4084507,51.6901408 40.8450704,50.0704225 45.7042254,43.2394366 C50.1408451,36.9014085 49.084507,28.3098592 43.4507042,23.2394366 L49.5774648,20.9859155 L49.9295775,17.1830986 L49.9295775,17.1830986 Z M49.084507,17.3943662 L47.0422535,17.8873239 L46.9014085,15.915493 L49.084507,17.3943662 L49.084507,17.3943662 Z M44.3661972,14.084507 L46.3380282,15.4929577 L44.2957746,15.915493 L44.3661972,14.084507 L44.3661972,14.084507 Z M44.1549296,16.6901408 L46.1971831,16.2676056 L46.3380282,18.2394366 L44.1549296,16.6901408 L44.1549296,16.6901408 L44.1549296,16.6901408 Z M46.056338,18.8732394 L42.6760563,22.0422535 L42.0422535,21.5492958 L43.943662,17.2535211 L46.056338,18.8732394 L46.056338,18.8732394 Z M43.6619718,14.2253521 L43.5915493,16.2676056 L41.8309859,15 L43.6619718,14.2253521 L43.6619718,14.2253521 Z M41.4084507,15.6338028 L43.3098592,16.971831 L41.4084507,21.2676056 L41.3380282,21.1971831 L41.4084507,15.6338028 L41.4084507,15.6338028 Z M16.5492958,8.8028169 L17.4647887,4.22535211 L19.7183099,4.22535211 L16.5492958,8.8028169 L16.5492958,8.8028169 Z M15.8450704,8.8028169 L15,8.8028169 L14.084507,4.22535211 L16.7605634,4.22535211 L15.8450704,8.8028169 L15.8450704,8.8028169 Z M19.7887324,3.52112676 L17.6760563,3.52112676 L17.6760563,3.45070423 L17.4647887,3.38028169 L18.8732394,1.76056338 L19.7887324,3.52112676 L19.7887324,3.52112676 Z M18.3802817,1.33802817 L16.971831,2.88732394 L15.7042254,1.33802817 L18.3802817,1.33802817 L18.3802817,1.33802817 Z M16.6197183,3.52112676 L13.943662,3.52112676 L13.943662,3.52112676 L15.3521127,1.97183099 L16.6197183,3.52112676 L16.6197183,3.52112676 Z M15,1.33802817 L13.5915493,2.88732394 L12.6056338,1.33802817 L15,1.33802817 L15,1.33802817 Z M12.1126761,1.83098592 L13.2394366,3.52112676 L11.056338,3.52112676 L12.1126761,1.83098592 L12.1126761,1.83098592 Z M11.056338,4.22535211 L13.3802817,4.22535211 L14.2957746,8.8028169 L14.2253521,8.8028169 L11.056338,4.22535211 L11.056338,4.22535211 Z M18.6619718,38.3802817 C17.6056338,38.5915493 16.4788732,38.7323944 15.3521127,38.7323944 C7.3943662,38.7323944 0.915492958,32.2535211 0.915492958,24.2957746 C0.915492958,16.3380282 7.32394366,9.85915493 15.3521127,9.85915493 C21.7605634,9.85915493 27.2535211,14.084507 29.084507,19.9295775 C28.2394366,20.1408451 27.4647887,20.4929577 26.6901408,20.8450704 C25.2112676,16.056338 20.7042254,12.5352113 15.4225352,12.5352113 C8.94366197,12.5352113 3.5915493,17.8169014 3.5915493,24.3661972 C3.5915493,30.8450704 8.87323944,36.1971831 15.4225352,36.1971831 C16.4084507,36.1971831 17.3239437,36.056338 18.1690141,35.8450704 C18.3802817,35.7746479 18.6619718,35.7042254 18.8732394,35.6338028 C19.8591549,35.3521127 20.7042254,34.9295775 21.5492958,34.4366197 C21.8309859,34.2957746 22.0422535,34.1549296 22.2535211,33.943662 C25,31.971831 26.8309859,28.8732394 27.1126761,25.3521127 C27.8873239,24.7887324 28.8028169,24.3661972 29.6478873,24.084507 L29.6478873,24.3661972 C29.6478873,29.7183099 26.7605634,34.3661972 22.3943662,36.8309859 C22.1830986,36.971831 21.971831,37.0422535 21.7605634,37.1830986 C20.915493,37.6056338 20.0704225,37.9577465 19.2253521,38.1690141 C19.1549296,38.2394366 18.8732394,38.3098592 18.6619718,38.3802817 L18.6619718,38.3802817 Z M18.1690141,35.0704225 C17.3239437,35.2816901 16.4084507,35.4225352 15.4225352,35.4225352 C9.29577465,35.4225352 4.29577465,30.4225352 4.29577465,24.2957746 C4.29577465,18.1690141 9.29577465,13.1690141 15.4225352,13.1690141 C20.4225352,13.2394366 24.7183099,16.5492958 26.056338,21.1267606 C24.084507,22.1830986 22.3239437,23.7323944 20.915493,25.7042254 C18.943662,28.5211268 18.028169,31.8309859 18.1690141,35.0704225 L18.1690141,35.0704225 Z M22.3943662,32.9577465 C22.6056338,31.2676056 23.2394366,29.5774648 24.2957746,28.0985915 C24.9295775,27.2535211 25.6338028,26.4788732 26.4084507,25.8450704 C25.9859155,28.7323944 24.5070423,31.1971831 22.3943662,32.9577465 L22.3943662,32.9577465 Z M30.4225352,23.8028169 C33.5211268,22.9577465 36.971831,23.4507042 39.7887324,25.4225352 C44.7887324,28.943662 45.9859155,35.915493 42.4647887,40.915493 C38.943662,45.915493 31.971831,47.1126761 26.971831,43.5915493 C24.7887324,42.0422535 23.3802817,39.9295775 22.6760563,37.5352113 C27.3239437,34.9295775 30.4225352,30 30.4225352,24.2957746 C30.4929577,24.1549296 30.4929577,24.0140845 30.4225352,23.8028169 L30.4225352,23.8028169 Z M45.0704225,42.7464789 C40.4929577,49.2253521 31.4084507,50.7746479 24.9295775,46.1971831 C22.2535211,44.2957746 20.4225352,41.6901408 19.5070423,38.8028169 C20.3521127,38.5211268 21.1971831,38.2394366 22.0422535,37.8169014 C22.7464789,40.2816901 24.2957746,42.5352113 26.5492958,44.1549296 C31.8309859,47.8873239 39.2253521,46.6197183 43.028169,41.3380282 C46.7605634,36.056338 45.4929577,28.6619718 40.2112676,24.8591549 C37.2535211,22.7464789 33.6619718,22.2535211 30.4225352,23.0985915 C30.2112676,23.1690141 29.9295775,23.2394366 29.7183099,23.3098592 C28.8732394,23.5915493 28.028169,23.943662 27.2535211,24.4366197 C26.971831,24.5774648 26.7605634,24.7887324 26.5492958,24.9295775 C25.4929577,25.7042254 24.5774648,26.6197183 23.8028169,27.6760563 C22.5352113,29.4366197 21.8309859,31.4788732 21.6901408,33.5211268 C20.8450704,34.084507 19.9295775,34.5774648 18.943662,34.8591549 C18.8732394,31.8309859 19.7183099,28.7323944 21.5492958,26.056338 C22.8169014,24.2253521 24.5070423,22.8169014 26.3380282,21.7605634 C26.5492958,21.6197183 26.7605634,21.5492958 26.971831,21.4084507 C27.7464789,21.056338 28.5211268,20.7042254 29.3661972,20.4929577 C29.5774648,20.4225352 29.8591549,20.3521127 30.0704225,20.3521127 C33.943662,19.4366197 38.2394366,20.0704225 41.7605634,22.6056338 C48.1690141,27.2535211 49.7183099,36.2676056 45.0704225,42.7464789 L45.0704225,42.7464789 Z M43.2394366,22.4647887 L46.6197183,19.2957746 L48.4507042,20.5633803 L43.2394366,22.4647887 L43.2394366,22.4647887 Z M48.943662,20.0704225 L47.1830986,18.8028169 L47.1830986,18.8028169 L47.0422535,18.6619718 L49.084507,18.1690141 L48.943662,20.0704225 L48.943662,20.0704225 Z" fill="#3A5278"></path>
        </g>
    </g>
</svg>