<?xml version="1.0" encoding="UTF-8" standalone="no"?>
<svg width="25px" height="24px" viewBox="0 0 25 24" version="1.1" xmlns="http://www.w3.org/2000/svg" xmlns:xlink="http://www.w3.org/1999/xlink">
    <!-- Generator: Sketch 40.3 (33839) - http://www.bohemiancoding.com/sketch -->
    <title>shopping</title>
    <desc>Created with Sketch.</desc>
    <defs></defs>
    <g id="icons" stroke="none" stroke-width="1" fill="none" fill-rule="evenodd" stroke-linejoin="round">
        <g id="shopping" transform="translate(1.000000, 1.000000)" stroke="#3A5278">
            <path d="M11.5,19.5498 C11.5,19.5498 16.5,15.9498 16.5,13.2828 C16.5,10.2068 12.408,9.2338 11.5,12.9768 C10.59,9.2338 6.5,10.2068 6.5,13.2828 C6.5,15.9498 11.5,19.5498 11.5,19.5498 L11.5,19.5498 Z" id="Stroke-5886" stroke-linecap="round"></path>
            <polygon id="Stroke-5887" stroke-linecap="round" points="23.0002 21.9999 0.0002 21.9999 0.0002 6.9999 23.0002 6.9999"></polygon>
            <path d="M16,4.5 C16,2.015 13.984,0 11.5,0 C9.014,0 7,2.015 7,4.5 L7,7 L16,7 L16,4.5 L16,4.5 Z" id="Stroke-5888" stroke-linecap="round"></path>
            <polyline id="Stroke-5889" points="17.5 5 20.875 5 23 7"></polyline>
            <path d="M8.5,5 L14.498,5" id="Stroke-5890"></path>
            <polyline id="Stroke-5891" points="0 7 2.25 5 5.5 5"></polyline>
        </g>
    </g>
</svg>