<?xml version="1.0" standalone="no"?>
<!DOCTYPE svg PUBLIC "-//W3C//DTD SVG 20010904//EN"
 "http://www.w3.org/TR/2001/REC-SVG-20010904/DTD/svg10.dtd">
<svg version="1.0" xmlns="http://www.w3.org/2000/svg"
 width="700.000000pt" height="700.000000pt" viewBox="0 0 700.000000 700.000000"
 preserveAspectRatio="xMidYMid meet">
<metadata>
Created by potrace 1.11, written by Peter Selinger 2001-2013
</metadata>
<g transform="translate(0.000000,700.000000) scale(0.100000,-0.100000)"
fill="#000000" stroke="none">
<path d="M3309 6856 c-2 -2 -44 -7 -94 -10 -49 -3 -101 -8 -115 -10 -14 -2
-47 -7 -75 -11 -60 -7 -246 -42 -295 -55 -19 -5 -64 -16 -100 -25 -276 -69
-634 -225 -904 -394 -112 -71 -318 -219 -371 -268 -11 -10 -38 -33 -60 -52
-93 -78 -331 -321 -388 -396 -4 -5 -32 -41 -63 -80 -97 -123 -252 -364 -315
-490 -14 -27 -31 -59 -37 -70 -75 -133 -229 -553 -256 -700 -2 -11 -9 -38 -14
-60 -6 -22 -13 -53 -16 -70 -2 -16 -9 -52 -15 -80 -5 -27 -13 -77 -16 -110 -4
-33 -9 -69 -11 -79 -25 -135 -25 -661 0 -793 3 -12 7 -48 11 -80 3 -32 8 -65
10 -73 4 -15 14 -67 20 -105 1 -11 8 -42 15 -70 19 -81 20 -84 25 -107 13 -63
72 -246 112 -353 152 -401 388 -782 678 -1094 383 -412 843 -712 1380 -900 55
-19 250 -77 292 -86 10 -2 59 -13 108 -23 95 -21 128 -27 210 -37 28 -4 61 -8
75 -11 138 -25 671 -25 795 0 11 2 47 7 80 11 33 3 79 11 103 16 23 5 57 11
75 14 68 9 288 68 412 110 286 96 535 218 780 381 154 104 152 102 235 169
455 364 790 804 1015 1331 106 246 205 606 231 830 3 27 7 60 10 74 25 143 25
664 -1 798 -2 12 -6 47 -10 79 -3 32 -10 77 -16 101 -5 23 -12 59 -15 80 -3
20 -10 55 -16 77 -5 22 -12 48 -14 57 -2 10 -6 26 -8 36 -14 61 -74 253 -107
342 -47 124 -145 344 -171 382 -10 14 -18 29 -18 33 0 4 -31 60 -69 124 -207
348 -493 675 -814 929 -254 201 -562 376 -868 495 -100 39 -145 54 -284 97
-101 30 -335 81 -442 95 -24 3 -60 7 -80 10 -21 3 -60 8 -88 11 -60 6 -501 15
-506 10z m-404 -2119 c222 -56 406 -189 537 -388 29 -43 55 -79 58 -79 3 0 27
34 54 76 28 42 82 109 122 149 180 182 384 267 623 260 176 -5 303 -46 457
-147 66 -42 224 -190 224 -209 0 -4 6 -14 13 -21 55 -57 146 -267 163 -378 3
-19 9 -54 14 -78 8 -45 6 -239 -4 -309 -11 -80 -78 -258 -143 -383 -140 -268
-351 -539 -658 -845 -215 -214 -358 -342 -609 -543 -171 -137 -200 -155 -248
-158 -48 -2 -85 15 -158 73 -30 25 -62 50 -70 56 -65 51 -170 136 -195 158
-28 26 -47 42 -92 79 -152 127 -444 412 -574 560 -327 372 -512 686 -580 985
-15 65 -18 270 -6 350 58 372 306 671 642 774 39 12 86 24 105 27 19 3 36 7
38 9 9 9 237 -5 287 -18z"/>
</g>
</svg>
